<!--?xml version="1.0" standalone="no"?-->              <svg id="sw-js-blob-svg" viewBox="0 0 100 100" xmlns="http://www.w3.org/2000/svg">                    <defs>                         <linearGradient id="sw-gradient" x1="0" x2="1" y1="1" y2="0">                            <stop id="stop1" stop-color="rgba(55, 197.507, 248, 1)" offset="0%"></stop>                            <stop id="stop2" stop-color="rgba(31, 162.583, 251, 1)" offset="100%"></stop>                        </linearGradient>                    </defs>                <path fill="none" d="M26.7,-32.7C32.6,-26.9,33.9,-16.6,32.7,-8C31.6,0.5,28,7.3,24.8,15.8C21.7,24.3,19,34.5,12.2,39.6C5.5,44.7,-5.4,44.7,-14.7,41C-24,37.4,-31.8,30.1,-35.6,21.5C-39.4,12.9,-39.3,3,-36.5,-5.3C-33.7,-13.6,-28.2,-20.4,-21.7,-26C-15.1,-31.7,-7.6,-36.4,1.4,-38.1C10.4,-39.7,20.8,-38.5,26.7,-32.7Z" width="100%" height="100%" transform="translate(50 50)" stroke-width="1" style="transition: all 0.3s ease 0s;" stroke="url(#sw-gradient)"></path>              </svg>